/* XPM */
static char *a62365513a8442e5b59d57af2b44f884EOglEuMW4CiHWuOB[] = {
/* columns rows colors chars-per-pixel */
"64 64 9 1 ",
"  c #0EBABD",
". c #15C2C6",
"X c #3DE0E5",
"o c #4BEDE6",
"O c #65F5E3",
"+ c #70FBF0",
"@ c #9EFEEB",
"# c #D5FFF6",
"$ c white",
/* pixels */
"ooooooooooooooooXXXXXXXXooooooooooooXXXXXXXXXXXXXXXXoooooooo....",
"ooooooooooooooooXXXXXXXXooooooooooooXXXXXXXXXXXXXXXXoooooooo....",
"ooooooooooooooooXXXXXXXXooooooooooooXXXXXXXXXXXXXXXXoooooooo....",
"ooooooooooooooooXXXXXXXXooooooooooooXXXXXXXXXXXXXXXXoooooooo....",
"oooo####$$$$$$$$@@@@@@@@############@@@@@@@@OOOOOOOO########....",
"oooo####$$$$$$$$@@@@@@@@############@@@@@@@@OOOOOOOO########....",
"oooo####$$$$$$$$@@@@@@@@############@@@@@@@@OOOOOOOO########....",
"oooo####$$$$$$$$@@@@@@@@############@@@@@@@@OOOOOOOO########....",
"oooo$$$$OOOOOOOO++++####@@@@@@@@OOOOooooXXXXXXXXoooo++++####....",
"oooo$$$$OOOOOOOO++++####@@@@@@@@OOOOooooXXXXXXXXoooo++++####....",
"oooo$$$$OOOOOOOO++++####@@@@@@@@OOOOooooXXXXXXXXoooo++++####....",
"oooo$$$$OOOOOOOO++++####@@@@@@@@OOOOooooXXXXXXXXoooo++++####....",
"oooo$$$$OOOO++++####@@@@@@@@++++OOOOoooooooooooo++++++++@@@@....",
"oooo$$$$OOOO++++####@@@@@@@@++++OOOOoooooooooooo++++++++@@@@....",
"oooo$$$$OOOO++++####@@@@@@@@++++OOOOoooooooooooo++++++++@@@@....",
"oooo$$$$OOOO++++####@@@@@@@@++++OOOOoooooooooooo++++++++@@@@....",
"XXXX@@@@++++@@@@@@@@@@@@++++OOOOooooooooOOOO++++++++OOOO@@@@....",
"XXXX@@@@++++@@@@@@@@@@@@++++OOOOooooooooOOOO++++++++OOOO@@@@....",
"XXXX@@@@++++@@@@@@@@@@@@++++OOOOooooooooOOOO++++++++OOOO@@@@....",
"XXXX@@@@++++@@@@@@@@@@@@++++OOOOooooooooOOOO++++++++OOOO@@@@....",
"XXXX@@@@@@@@@@@@@@@@++++OOOOooooooooOOOO@@@@@@@@OOOOooooXXXX    ",
"XXXX@@@@@@@@@@@@@@@@++++OOOOooooooooOOOO@@@@@@@@OOOOooooXXXX    ",
"XXXX@@@@@@@@@@@@@@@@++++OOOOooooooooOOOO@@@@@@@@OOOOooooXXXX    ",
"XXXX@@@@@@@@@@@@@@@@++++OOOOooooooooOOOO@@@@@@@@OOOOooooXXXX    ",
"oooo####@@@@@@@@++++++++++++OOOOOOOO@@@@@@@@OOOOooooXXXXXXXX    ",
"oooo####@@@@@@@@++++++++++++OOOOOOOO@@@@@@@@OOOOooooXXXXXXXX    ",
"oooo####@@@@@@@@++++++++++++OOOOOOOO@@@@@@@@OOOOooooXXXXXXXX    ",
"oooo####@@@@@@@@++++++++++++OOOOOOOO@@@@@@@@OOOOooooXXXXXXXX    ",
"oooo####@@@@++++++++++++OOOOOOOO++++++++OOOOooooooooXXXXoooo    ",
"oooo####@@@@++++++++++++OOOOOOOO++++++++OOOOooooooooXXXXoooo    ",
"oooo####@@@@++++++++++++OOOOOOOO++++++++OOOOooooooooXXXXoooo    ",
"oooo####@@@@++++++++++++OOOOOOOO++++++++OOOOooooooooXXXXoooo    ",
"XXXX@@@@++++++++++++OOOOOOOO++++++++OOOOOOOOooooooooooooOOOO....",
"XXXX@@@@++++++++++++OOOOOOOO++++++++OOOOOOOOooooooooooooOOOO....",
"XXXX@@@@++++++++++++OOOOOOOO++++++++OOOOOOOOooooooooooooOOOO....",
"XXXX@@@@++++++++++++OOOOOOOO++++++++OOOOOOOOooooooooooooOOOO....",
"XXXX@@@@++++++++OOOOOOOO++++++++OOOOOOOOOOOOOOOOoooo++++OOOO....",
"XXXX@@@@++++++++OOOOOOOO++++++++OOOOOOOOOOOOOOOOoooo++++OOOO....",
"XXXX@@@@++++++++OOOOOOOO++++++++OOOOOOOOOOOOOOOOoooo++++OOOO....",
"XXXX@@@@++++++++OOOOOOOO++++++++OOOOOOOOOOOOOOOOoooo++++OOOO....",
"XXXXOOOO++++OOOOOOOO@@@@@@@@OOOOOOOOOOOOOOOOOOOO@@@@++++oooo    ",
"XXXXOOOO++++OOOOOOOO@@@@@@@@OOOOOOOOOOOOOOOOOOOO@@@@++++oooo    ",
"XXXXOOOO++++OOOOOOOO@@@@@@@@OOOOOOOOOOOOOOOOOOOO@@@@++++oooo    ",
"XXXXOOOO++++OOOOOOOO@@@@@@@@OOOOOOOOOOOOOOOOOOOO@@@@++++oooo    ",
"XXXXooooOOOOOOOO@@@@@@@@OOOOooooooooOOOOoooo@@@@@@@@OOOOoooo    ",
"XXXXooooOOOOOOOO@@@@@@@@OOOOooooooooOOOOoooo@@@@@@@@OOOOoooo    ",
"XXXXooooOOOOOOOO@@@@@@@@OOOOooooooooOOOOoooo@@@@@@@@OOOOoooo    ",
"XXXXooooOOOOOOOO@@@@@@@@OOOOooooooooOOOOoooo@@@@@@@@OOOOoooo    ",
"XXXXooooOOOO@@@@@@@@OOOOooooXXXXXXXXoooo++++++++OOOOooooOOOO....",
"XXXXooooOOOO@@@@@@@@OOOOooooXXXXXXXXoooo++++++++OOOOooooOOOO....",
"XXXXooooOOOO@@@@@@@@OOOOooooXXXXXXXXoooo++++++++OOOOooooOOOO....",
"XXXXooooOOOO@@@@@@@@OOOOooooXXXXXXXXoooo++++++++OOOOooooOOOO....",
"XXXXXXXX++++++++OOOOooooXXXXXXXXooooOOOOOOOOOOOOoooooooo++++....",
"XXXXXXXX++++++++OOOOooooXXXXXXXXooooOOOOOOOOOOOOoooooooo++++....",
"XXXXXXXX++++++++OOOOooooXXXXXXXXooooOOOOOOOOOOOOoooooooo++++....",
"XXXXXXXX++++++++OOOOooooXXXXXXXXooooOOOOOOOOOOOOoooooooo++++....",
"XXXXooooXXXXooooooooXXXXXXXXooooOOOOOOOOooooooooOOOO++++@@@@    ",
"XXXXooooXXXXooooooooXXXXXXXXooooOOOOOOOOooooooooOOOO++++@@@@    ",
"XXXXooooXXXXooooooooXXXXXXXXooooOOOOOOOOooooooooOOOO++++@@@@    ",
"XXXXooooXXXXooooooooXXXXXXXXooooOOOOOOOOooooooooOOOO++++@@@@    ",
"........    ........            ........        ........        ",
"........    ........            ........        ........        ",
"........    ........            ........        ........        ",
"........    ........            ........        ........        "
};
