/* XPM */
static char *result[] = {
/* columns rows colors chars-per-pixel */
"64 64 181 2 ",
"   c #000000",
".  c #020807",
"X  c #060C0B",
"o  c #0A0D0D",
"O  c #071413",
"+  c #0A1514",
"@  c #0A1917",
"#  c #0A1B1A",
"$  c #141D1B",
"%  c #0D211E",
"&  c #14211F",
"*  c #0D2523",
"=  c #0D2A29",
"-  c #132522",
";  c #112D2A",
":  c #1E302C",
">  c #0D3132",
",  c #0F393B",
"<  c #163431",
"1  c #123B3B",
"2  c #193E3A",
"3  c #232A29",
"4  c #213531",
"5  c #233834",
"6  c #313E3B",
"7  c #2A443F",
"8  c #1E4541",
"9  c #1B4A46",
"0  c #1B4D49",
"q  c #1C5A57",
"w  c #214E49",
"e  c #28514C",
"r  c #34554E",
"t  c #275A55",
"y  c #2A5D59",
"u  c #365A53",
"i  c #395A54",
"p  c #26625B",
"a  c #2C635C",
"s  c #1B6364",
"d  c #1F7172",
"f  c #206563",
"g  c #256C67",
"h  c #316E69",
"j  c #2D726C",
"k  c #34756F",
"l  c #267673",
"z  c #287772",
"x  c #2D7972",
"c  c #207578",
"v  c #337B72",
"b  c #3B7D76",
"n  c #4B5A57",
"m  c #41665F",
"M  c #477E76",
"N  c #4E7F75",
"B  c #2B807B",
"V  c #35837A",
"C  c #55897F",
"Z  c #288685",
"A  c #2D8C87",
"S  c #25898C",
"D  c #398B83",
"F  c #2E918D",
"G  c #3B9087",
"H  c #319D99",
"J  c #33A19C",
"K  c #0EBABD",
"L  c #10BABD",
"P  c #39B3AD",
"I  c #31B2B5",
"U  c #39BDBC",
"Y  c #41948D",
"T  c #46988E",
"R  c #589388",
"E  c #439B92",
"W  c #789690",
"Q  c #46A49A",
"!  c #4BABA1",
"~  c #49B2A5",
"^  c #4CB2A9",
"/  c #4CB9AD",
"(  c #52B9AB",
")  c #54BEB5",
"_  c #59BEB5",
"`  c #71ADA1",
"'  c #6FB7A9",
"]  c #75BFB1",
"[  c #4DC4B6",
"{  c #50C2B4",
"}  c #53CBBC",
"|  c #77C1B3",
" . c #79C0B2",
".. c #7ACABB",
"X. c #14BEC2",
"o. c #34BFC4",
"O. c #15C1C5",
"+. c #1EC1C2",
"@. c #1BC7CA",
"#. c #1FC8CA",
"$. c #20C2C3",
"%. c #23C9CA",
"&. c #2CC9CC",
"*. c #37CCD1",
"=. c #37DBE0",
"-. c #39DDE1",
";. c #3DE0E5",
":. c #42C9C2",
">. c #41CFC9",
",. c #59D7C7",
"<. c #5BDBCC",
"1. c #43D9D5",
"2. c #77D0C2",
"3. c #61DCD2",
"4. c #4AE2DA",
"5. c #5FE7D6",
"6. c #57EEDF",
"7. c #5BEFDF",
"8. c #65E4D9",
"9. c #63ECDC",
"0. c #68ECDE",
"q. c #42DFE0",
"w. c #43E5E3",
"e. c #49E4E5",
"r. c #46E9E4",
"t. c #4BEDE6",
"y. c #4FEFE8",
"u. c #52EEE5",
"i. c #5DEFE0",
"p. c #5CEFE8",
"a. c #54F0E7",
"s. c #5EF3E3",
"d. c #53F0E8",
"f. c #5AF0E8",
"g. c #69EDE2",
"h. c #61EFE9",
"j. c #7CEEE0",
"k. c #64F5E3",
"l. c #6BF6E4",
"z. c #64F4EB",
"x. c #6AF6ED",
"c. c #6DFAEE",
"v. c #73F7E5",
"b. c #79F7E7",
"n. c #78F7E8",
"m. c #75FBEF",
"M. c #7AFBEF",
"N. c #6FFBF0",
"B. c #70FBF0",
"V. c #7CFBF0",
"C. c #8AADA7",
"Z. c #9ABFB6",
"A. c #9CC1B8",
"S. c #85DECF",
"D. c #8ADFCE",
"F. c #8DECDB",
"G. c #94EADA",
"H. c #BFE4DC",
"J. c #8DF6E6",
"K. c #88F7E9",
"L. c #8CFAEA",
"P. c #97F6E4",
"I. c #95F8E6",
"U. c #94FCEA",
"Y. c #9DFEEB",
"T. c #84FBF1",
"R. c #AEF5EE",
"E. c #A4FEED",
"W. c #AAFEED",
"Q. c #BEF7F0",
"!. c #B6FBF2",
"~. c #BDFCF2",
"^. c #C4FCF3",
"/. c #CCFFF4",
"(. c #D6FFF6",
"). c #DBFFF7",
"_. c #DDFCF9",
"`. c #E4FCFA",
"'. c #EAFDFB",
"]. c #F3FFFC",
"[. c #FEFFFF",
/* pixels */
"t.t.t.t.t.t.t.t.t.t.t.t.t.t.t.t.w.;.;.;.;.;.;.;.r.y.r.y.t.t.t.t.t.t.t.r.;.;.;.;.w.-.;.;.;.;.;.;.;.;.;.;.t.t.t.t.t.t.t.r.@.O.O.O.",
"t.t.t.t.t.t.t.t.t.t.t.t.t.t.t.r.;.q.;.;.;.;.;.;.r.y.t.y.t.t.t.t.t.t.t.y.;.;.;.;.-.;.;.;.;.;.;.;.;.;.;.;.r.t.t.t.t.t.t.w.@.O.O.O.",
"t.t.t.t.t.t.t.t.t.t.r.t.t.t.t.t.q.-.-.-.;.;.;.;.t.t.r.y.t.t.t.t.t.t.t.r.;.-.;.;.;.;.-.-.;.;.;.;.;.;.;.;.r.t.t.t.t.t.t.w.@.O.O.O.",
"t.t.t.t.p.p.f.f.f.z.h.h.h.h.h.p.y.e.e.q.e.e.e.e.d.p.p.d.p.p.p.p.d.p.p.f.e.e.e.e.e.e.e.e.e.;.w.w.;.e.;.e.f.p.p.p.d.p.f.d.@.O.O.O.",
"t.t.t.f.!.^.~.^.`.'.`.'.`.`.`._.Y.U.U.U.L.U.U.U.~.^.^.^.^.^.^.^.^.^.^.~.U.T.U.U.U.U.J.K.k.s.s.k.p.f.s.l.!.^.^.^.^.^.^.R.&.O.O.O.",
"t.t.t.p.^.(.(._.[.[.[.[.[.[.[.].W.Y.Y.Y.Y.E.Y.E./._.(.(.(.(.(.(.(.(.(./.E.E.E.E.Y.E.E.U.l.k.k.k.k.z.k.v.^._.(.(.(.(.(.Q.&.O.O.O.",
"t.t.t.f.^.(.(._.[.[.[.[.[.[.[.].W.Y.Y.Y.Y.Y.Y.E./._.(.(.(.(.(.(.(.(._./.E.E.Y.Y.Y.Y.E.U.l.k.k.k.k.k.k.v./.(.(.(.(.(.(.Q.%.O.O.O.",
"t.t.t.f.^._.(._.`.`.'.'.'.'.'.`.E.U.Y.Y.E.E.E.W.^././././././././.^.^.^.U.U.U.L.U.U.U.K.k.k.z.f.k.k.s.l.~.^././.(.(.(.~.&.O.@.O.",
"t.t.t.h.`.[.[.'.K.b.b.b.b.b.b.b.m.m.m.T.^./././.W.E.E.E.E.E.E.Y.n.v.v.l.f.a.u.u.e.e.e.e.w.w.w.e.r.y.t.d.m.V.V.T.^.(.(.Q.&.O.O.O.",
"t.t.r.p.`.[.[.'.n.k.k.k.k.k.k.k.c.c.N.V./.(.(./.E.Y.Y.Y.Y.Y.E.U.l.k.k.k.t.t.t.t.;.;.;.-.-.;.-.;.t.t.t.y.x.N.N.V.^.(.(.Q.&.X.O.O.",
"t.t.r.z.'.[.[.'.n.k.k.k.k.k.<.G Y Y Y T W H.H.W ] Y.E.Y.Y.Y.Y.R E k.[ G A A A A Z -.I S o.;.;.;.t.t.t.y.c.B.N.V./.(.(.Q.&.O.O.O.",
"t.t.t.h.'.[.[.'.n.k.k.k.k.k./             Z.A.  i Y.Y.Y.U.Y.Y.  # k.v             -.d   S w.;.;.t.y.y.d.c.B.N.V.^./.(.!.&.O.O.@.",
"t.t.t.f.'.[.[.'.n.k.k.k.c.c.)   6 C.C.C.` G. .  i Y.E.Y.M.m.m.  # k.v   f J J J J t.l   F r.t.t.x.N.x.N.c.B.B.V.Y.E.E.U.#.O.O.O.",
"t.t.t.z.'.[.[.'.n.k.k.k.m.c.{   n ).).(.E.Y. .  i Y.Y.U.m.N.B.  # k.v   F t.t.r.t.t.l   F t.t.y.x.B.N.N.B.B.N.B.U.Y.Y.J.#.O.@.O.",
"t.t.r.h.'.[.[.'.n.k.k.l.c.B.)   o 3 3 3 m Y.|   u Y.Y.Y.m.B.B.  # k.v   @ = * = F t.l   F t.t.y.x.B.N.B.N.B.N.V.Y.Y.E.K.#.O.O.O.",
"t.t.r.p._.].].`.n.k.k.l.m.m._   o $ $ $ i Y.|   u Y.U.U.m.c.c.  # k.v   X # # # A y.l   F d.t.d.N.B.B.N.N.c.c.B.U.E.E.L.%.O.O.O.",
";.;.;.e.Y.W.W.E.m.c.c.m.U.U.]   i E.E.E.Y.Y. .  t m.m.m.l.k.k.  # t.z   F t.y.t.s.s.v   Y c.c.c.N.N.B.c.x.l.k.l.Y.Y.Y.J.%.O.O.O.",
";.;.;.e.L.E.E.U.m.N.N.m.U.E.]   7  . . . .G. .  8 ) ) ) / ,.k.  # t.z   g P P P / k.v   k ) ) ) ) g.B.c.k.k.k.l.U.Y.E.J.%.X.O.O.",
";.;.-.e.L.Y.Y.U.m.c.c.m.Y.Y. .            ] |             x k.  # r.l             k.v             ) B.c.k.k.k.l.Y.Y.E.J.&.O.O.O.",
";.;.;.e.U.E.E.U.M.m.m.M.U.Y.D.C N N N N M S.S.M b V v V v ^ k.x Z t.P z z z x x k l.( b b b M V b 3.c.c.k.s.k.l.K.U.U.b.%.O.O.O.",
";.;.;.e.L.Y.Y.Y.Y.Y.U.Y.Y.Y.Y.E.Y.Y.Y.U.M.m.m.m.l.k.l.k.t.a.t.t.t.t.t.y.7.k.s.k.U.Y.U.U.U.U.U.U.l.k.k.k.u.t.t.t.e.e.e.q.O.K L K ",
";.-.;.e.U.E.Y.Y.Y.Y.Y.Y.E.Y.Y.Y.Y.E.Y.Y.m.m.N.c.l.k.k.k.u.t.t.t.t.t.t.t.k.k.k.l.U.Y.Y.Y.Y.E.E.U.l.k.k.s.t.t.t.t.;.;.;.=.L K K K ",
";.;.-.e.U.Y.Y.Y.Y.Y.Y.Y.Y.Y.Y.Y.Y.E.Y.U.m.N.N.c.k.k.k.s.t.t.t.t.t.t.t.t.k.k.k.l.U.Y.E.Y.E.Y.Y.U.l.k.k.k.u.t.t.t.;.;.;.=.X.K K K ",
"w.;.w.e.U.E.E.E.E.Y.Y.E.Y.Y.Y.Y.Y.U.Y.U.m.N.B.c.l.k.k.k.a.u.t.y.t.a.t.a.l.l.l.b.U.Y.Y.Y.U.U.U.U.k.k.k.s.t.r.t.r.;.;.;.=.X.K K K ",
"t.t.t.d.~././.^.E.Y.E.Y.Y.Y.Y.Y.V.m.m.m.B.B.B.c.c.c.c.c.k.k.s.k.k.7.k.k.U.U.U.U.Y.E.Y.Y.v.l.l.k.u.t.y.t.w.;.w.;.;.;.;.=.X.K K K ",
"t.t.t.p.^.(._./.E.Y.Y.Y.Y.E.E.U.m.N.N.N.B.B.B.B.B.B.B.c.l.k.k.k.k.k.k.l.I.Y.Y.E.Y.Y.Y.U.l.k.k.k.t.t.t.t.;.;.;.;.;.;.;.=.X.K K K ",
"t.t.t.d.^._.(./.E.Y.Y.E.Y.Y.E.U.B.N.N.N.B.B.B.N.B.c.B.c.k.k.k.k.k.k.k.l.I.E.E.Y.Y.Y.Y.U.l.k.k.s.t.t.t.r.;.;.;.;.;.;.;.=.X.K K K ",
"t.t.t.p.^.(.(./.E.Y.Y.Y.U.Y.U.U.m.N.B.B.B.B.N.c.c.c.m.c.t + v l.l.G + a U.Y.U.U.Y.U.U.U.k.k.k.s.t.t.t.t.w.;.;.;.;.;.w.=.X.K K K ",
"t.t.t.d.^._.(./.E.Y.Y.U.V.B.B.V.B.B.B.N.B.B.B.m.l.k.k.k.<.+ . } 3.X O 8.m.m.m.m.v.l.l.k.u.t.y.t.t.t.t.t.;.;.;.;.r.r.r.w.X.K K K ",
"t.t.t.p.^.(.(./.E.Y.E.U.B.N.B.B.B.B.B.B.B.B.B.c.k.k.l.k.k.Q   2 w   Q B.c.c.m.c.k.k.k.k.t.t.t.t.t.t.t.t.;.;.;.;.t.t.t.r.X.K K K ",
"t.t.t.p.^.(.(./.E.Y.E.Y.V.B.B.B.B.B.B.N.B.B.B.c.l.k.k.k.k.k.w     e B.B.N.m.c.c.k.k.k.k.t.t.t.t.t.t.t.t.;.;.;.;.r.t.t.r.O.K K K ",
"e.t.t.d.~./././.E.U.U.U.B.B.B.B.B.B.B.m.c.c.c.c.k.k.k.k.k.k.Q     ^ B.c.c.c.c.c.k.k.k.k.u.t.t.t.t.t.t.t.w.;.w.w.t.t.y.4.O.K K K ",
"w.;.;.e.U.E.E.Y.M.m.B.m.B.B.B.B.B.B.N.m.l.k.l.k.k.k.k.k.c.g.-     - l.c.l.l.k.k.k.k.k.k.6.t.t.t.t.t.t.t.t.r.t.t.s.s.k.7.@.X.O.O.",
";.;.;.e.U.Y.Y.U.m.B.B.N.B.B.B.B.B.N.N.c.k.k.k.k.k.k.l.k.c.h   y y   h N.z.k.k.k.k.k.k.k.t.t.t.t.t.t.t.t.t.t.t.y.k.k.k.7.#.O.O.O.",
";.;.-.e.U.E.Y.Y.m.B.B.B.B.B.B.B.B.B.B.c.l.k.k.k.k.k.k.l.)   # 0.8.O   { l.k.k.k.k.k.k.k.t.t.t.t.t.t.t.t.t.r.t.y.k.k.k.7.#.O.O.O.",
";.;.-.e.U.Y.Y.Y.m.B.B.B.B.B.B.c.c.c.c.c.k.k.k.k.k.l.k.9.%   ^ c.N.Y   - 9.k.k.l.k.k.k.k.6.t.u.t.t.t.t.t.y.y.y.y.s.k.k.7.#.O.O.O.",
"-.;.;.e.U.Y.Y.U.m.B.B.B.B.B.B.c.l.l.k.k.k.k.k.l.c.c.c.c.c.B.B.m.k.l.l.k.k.k.k.k.k.k.k.k.k.k.k.i.t.t.t.u.x.c.c.c.k.k.k.7.#.O.O.O.",
";.;.;.e.U.Y.Y.Y.m.B.B.B.B.B.B.c.k.k.k.k.k.k.k.k.c.B.B.B.B.B.B.c.l.k.k.k.k.k.k.k.k.k.k.k.k.k.k.k.t.t.t.y.c.c.N.c.k.k.k.7.#.O.O.O.",
";.;.;.e.U.Y.Y.U.m.N.B.B.c.B.m.c.k.k.k.k.k.k.k.k.c.B.B.B.B.B.m.c.k.k.k.k.k.l.k.k.k.k.k.k.k.k.k.k.t.t.t.y.c.N.N.c.l.k.k.7.#.O.O.O.",
";.;.-.e.K.U.Y.U.m.N.B.N.c.c.c.c.l.k.l.k.l.l.l.v.m.m.M.B.c.c.c.c.k.k.k.k.k.k.k.k.k.k.k.k.k.k.k.k.6.a.a.a.c.c.N.c.k.k.k.6.@.O.O.O.",
";.;.;.w.z.l.l.l.c.B.B.c.l.k.l.k.k.k.k.l.L.U.U.U.Y.U.Y.U.v.k.k.k.k.l.k.k.k.k.k.k.k.l.k.k.k.k.k.k.L.U.U.L.m.N.c.c.d.y.t.r.O.K K K ",
";.;.;.w.p.z.k.x.c.c.B.c.l.k.k.k.k.k.k.l.U.E.Y.E.Y.Y.Y.U.l.k.k.k.k.k.k.k.k.k.k.k.k.k.k.k.k.k.k.l.U.Y.E.U.m.N.N.c.y.t.r.w.O.K K K ",
";.;.;.;.s.k.k.l.c.m.c.m.z.k.k.k.k.k.s.l.U.Y.Y.Y.Y.Y.Y.Y.l.k.k.k.k.k.k.k.k.k.k.k.k.k.k.k.k.k.k.l.Y.Y.Y.Y.m.N.c.c.y.t.t.r.X.K K K ",
";.;.;.;.i.s.k.k.c.c.c.c.k.k.k.l.l.v.l.v.U.Y.E.Y.Y.U.U.L.k.k.s.k.k.7.k.k.k.k.k.k.k.s.k.k.l.v.l.v.U.Y.Y.U.m.c.c.l.y.t.t.r.X.K K K ",
";.;.-.;.t.t.t.u.k.k.k.k.} + % 0.U.U.U.U.+ : E.U.v.l.l.k.0 O O O O + 9 a.[ @ % <.u.4.= @ 2.U.R + r Y.E.U.a + V k.t.t.r.r.X.K K K ",
"-.;.;.w.t.t.t.u.k.k.k.k.a     Q U.Y.E.Y.  & E.U.l.k.k.k.1   = = = = q t.k.j   t u.f   j U.E.P.-   ' Y.| . @ 5.k.t.t.t.w.X.K K K ",
"w.;.-.w.r.t.t.t.k.k.k.9.o * . < U.E.E.Y.  $ E.I.l.k.k.k.1   :.t.t.t.t.t.k.9.;   B . = 4.U.Y.Y.'   - P.4 . Q s.s.6.t.t.r.+.K K K ",
";.;.-.w.y.t.t.t.k.k.k.V   G e   ..Y.Y.Y.  % U.U.k.k.s.k.1   Z H J H 1.t.7.k.[ .   . U s.L.Y.Y.U.r   5   2 s.s.s.6.t.6.r.O.L K K ",
";.;.;.;.t.t.t.y.p.z.k.- X F.'   i E.Y.Y.  # l.k.a.a.t.t.1           I w.t.a.t.>   < x.c.m.m.m.m.,..   . [ y.t.y.s.k.k.6.#.O.O.O.",
";.;.;.e.r.t.t.y.s.z.~   X 4 4   . G.Y.U.  # k.k.t.t.t.t.1   c S S S *.;.t.t.A       E c.N.c.m.c.l.h   p t.t.t.y.k.k.l.7.#.O.O.O.",
";.;.;.;.t.t.y.y.z.k.9             R Y.U.  # k.k.t.t.t.t.,   o.-.;.;.;.;.r.>.o . ! . o 8.N.N.c.c.k.V   v t.t.t.t.s.k.k.7.#.O.O.O.",
";.;.;.;.t.r.e.e.k.,.  - J.I.U.S.  & U.U.  . 2 2 1 1 f r., . > , , 1 s ;.t.2   B x.k   9 c.c.c.l.k.V   x t.t.t.y.k.k.k.7.#.O.O.O.",
";.;.;.;.;.;.;.w.x.k   D m.m.m.m.w   Q l.            1 ;.,   .       1 t.G   < 7.k.0.%   G k.l.k.d.B   z t.t.t.y.c.c.c.z.#.O.O.O.",
";.;.;.;.;.;.;.;.x.B.B.B.B.N.B.c.k.k.k.k.y.t.t.t.w.;.;.-.;.-.;.;.t.t.t.t.s.k.k.k.k.k.k.k.k.k.k.k.t.t.t.t.t.t.t.y.c.N.c.z.#.O.O.O.",
";.;.;.;.;.;.;.e.x.B.B.B.B.B.B.c.k.k.k.k.t.t.t.r.;.;.;.;.;.-.w.;.t.t.t.t.k.k.k.k.k.k.k.k.k.k.k.s.t.t.t.t.t.t.t.y.c.N.m.z.#.O.O.O.",
";.;.;.;.;.;.;.w.z.x.x.x.c.x.c.x.k.s.k.s.t.t.t.r.;.;.;.;.w.;.;.w.t.u.t.a.k.k.k.k.k.s.k.k.k.s.s.7.a.t.y.t.y.y.y.d.c.m.m.x.#.O.O.O.",
";.;.;.;.;.t.y.;.r.w.e.e.y.y.y.y.t.t.t.t.w.;.;.;.;.;.;.;.r.r.t.t.i.k.k.k.k.k.k.k.y.t.y.t.y.y.t.6.s.k.k.k.x.x.x.m.U.U.Y.K.+.K K K ",
";.;.;.;.y.t.y.t.w.-.;.;.r.y.r.y.t.t.t.t.;.;.;.;.;.;.;.;.t.t.t.u.k.k.k.k.k.k.k.k.t.t.t.t.t.t.t.t.k.k.k.k.c.N.N.M.U.E.Y.J.$.K K K ",
";.;.;.;.t.t.t.r.;.-.;.;.t.t.y.r.r.t.y.t.;.;.;.;.;.;.;.;.t.t.t.t.s.k.k.k.k.k.k.7.t.t.t.t.t.t.t.t.s.k.k.k.m.N.c.B.Y.Y.Y.J.$.K K K ",
"-.-.-.;.;.;.;.;.-.-.-.-.;.r.r.;.r.r.r.;.-.-.-.-.=.=.=.=.w.w.4.r.6.7.7.7.7.7.7.7.4.r.4.w.r.r.4.r.6.7.7.7.z.z.z.x.K.J.J.j.+.K K K ",
"@.@.@.@.O.@.@.@.X.X.X.X.@.@.@.@.@.@.@.@.X.X.X.X.X.K X.X.O.O.X.O.#.#.#.#.%.#.#.@.O.X.O.X.X.X.O.O.#.#.#.#.%.%.#.#.$.+.$.+.K K K K ",
"O.O.O.O.O.O.O.O.K K K K O.O.O.O.O.O.O.O.K L K K K K K K K K K K O.O.O.O.O.O.O.O.K K L L K K K K O.O.O.O.O.O.O.O.K K K K K K K K ",
"O.O.O.O.O.O.O.O.K K K X.O.O.O.O.O.O.O.O.K K K K K K K K K K K K O.O.O.O.O.O.O.O.K K K K K K K K O.O.O.O.O.O.O.O.K K L K K K K L ",
"O.@.O.O.O.O.O.X.X.K X.X.O.O.O.O.O.O.O.O.K K K K K K K K K K K K O.O.O.O.O.O.O.O.K K K K K K K X.O.O.O.O.O.O.O.O.K K K K K K K K "
};
