/* XPM */
static char *c8a3f3d457db487adafd8f07eac14e70bfwa47CZWE1hBxgd[] = {
/* columns rows colors chars-per-pixel */
"64 64 9 1 ",
"  c #CC8E27",
". c #D39632",
"X c #F9BD23",
"o c #F5CC27",
"O c #FFD83E",
"+ c #FEE048",
"@ c #FFEC4F",
"# c #FFFD90",
"$ c #FEFFBD",
/* pixels */
"ooooooooooooooooXXXXXXXXooooooooooooXXXXXXXXXXXXXXXXoooooooo....",
"ooooooooooooooooXXXXXXXXooooooooooooXXXXXXXXXXXXXXXXoooooooo....",
"ooooooooooooooooXXXXXXXXooooooooooooXXXXXXXXXXXXXXXXoooooooo....",
"ooooooooooooooooXXXXXXXXooooooooooooXXXXXXXXXXXXXXXXoooooooo....",
"oooo####$$$$$$$$@@@@@@@@############@@@@@@@@OOOOOOOO########....",
"oooo####$$$$$$$$@@@@@@@@############@@@@@@@@OOOOOOOO########....",
"oooo####$$$$$$$$@@@@@@@@############@@@@@@@@OOOOOOOO########....",
"oooo####$$$$$$$$@@@@@@@@############@@@@@@@@OOOOOOOO########....",
"oooo$$$$OOOOOOOO++++####@@@@@@@@OOOOooooXXXXXXXXoooo++++####....",
"oooo$$$$OOOOOOOO++++####@@@@@@@@OOOOooooXXXXXXXXoooo++++####....",
"oooo$$$$OOOOOOOO++++####@@@@@@@@OOOOooooXXXXXXXXoooo++++####....",
"oooo$$$$OOOOOOOO++++####@@@@@@@@OOOOooooXXXXXXXXoooo++++####....",
"oooo$$$$OOOO++++####@@@@@@@@++++OOOOoooooooooooo++++++++@@@@....",
"oooo$$$$OOOO++++####@@@@@@@@++++OOOOoooooooooooo++++++++@@@@....",
"oooo$$$$OOOO++++####@@@@@@@@++++OOOOoooooooooooo++++++++@@@@....",
"oooo$$$$OOOO++++####@@@@@@@@++++OOOOoooooooooooo++++++++@@@@....",
"XXXX@@@@++++@@@@@@@@@@@@++++OOOOooooooooOOOO++++++++OOOO@@@@....",
"XXXX@@@@++++@@@@@@@@@@@@++++OOOOooooooooOOOO++++++++OOOO@@@@....",
"XXXX@@@@++++@@@@@@@@@@@@++++OOOOooooooooOOOO++++++++OOOO@@@@....",
"XXXX@@@@++++@@@@@@@@@@@@++++OOOOooooooooOOOO++++++++OOOO@@@@....",
"XXXX@@@@@@@@@@@@@@@@++++OOOOooooooooOOOO@@@@@@@@OOOOooooXXXX    ",
"XXXX@@@@@@@@@@@@@@@@++++OOOOooooooooOOOO@@@@@@@@OOOOooooXXXX    ",
"XXXX@@@@@@@@@@@@@@@@++++OOOOooooooooOOOO@@@@@@@@OOOOooooXXXX    ",
"XXXX@@@@@@@@@@@@@@@@++++OOOOooooooooOOOO@@@@@@@@OOOOooooXXXX    ",
"oooo####@@@@@@@@++++++++++++OOOOOOOO@@@@@@@@OOOOooooXXXXXXXX    ",
"oooo####@@@@@@@@++++++++++++OOOOOOOO@@@@@@@@OOOOooooXXXXXXXX    ",
"oooo####@@@@@@@@++++++++++++OOOOOOOO@@@@@@@@OOOOooooXXXXXXXX    ",
"oooo####@@@@@@@@++++++++++++OOOOOOOO@@@@@@@@OOOOooooXXXXXXXX    ",
"oooo####@@@@++++++++++++OOOOOOOO++++++++OOOOooooooooXXXXoooo    ",
"oooo####@@@@++++++++++++OOOOOOOO++++++++OOOOooooooooXXXXoooo    ",
"oooo####@@@@++++++++++++OOOOOOOO++++++++OOOOooooooooXXXXoooo    ",
"oooo####@@@@++++++++++++OOOOOOOO++++++++OOOOooooooooXXXXoooo    ",
"XXXX@@@@++++++++++++OOOOOOOO++++++++OOOOOOOOooooooooooooOOOO....",
"XXXX@@@@++++++++++++OOOOOOOO++++++++OOOOOOOOooooooooooooOOOO....",
"XXXX@@@@++++++++++++OOOOOOOO++++++++OOOOOOOOooooooooooooOOOO....",
"XXXX@@@@++++++++++++OOOOOOOO++++++++OOOOOOOOooooooooooooOOOO....",
"XXXX@@@@++++++++OOOOOOOO++++++++OOOOOOOOOOOOOOOOoooo++++OOOO....",
"XXXX@@@@++++++++OOOOOOOO++++++++OOOOOOOOOOOOOOOOoooo++++OOOO....",
"XXXX@@@@++++++++OOOOOOOO++++++++OOOOOOOOOOOOOOOOoooo++++OOOO....",
"XXXX@@@@++++++++OOOOOOOO++++++++OOOOOOOOOOOOOOOOoooo++++OOOO....",
"XXXXOOOO++++OOOOOOOO@@@@@@@@OOOOOOOOOOOOOOOOOOOO@@@@++++oooo    ",
"XXXXOOOO++++OOOOOOOO@@@@@@@@OOOOOOOOOOOOOOOOOOOO@@@@++++oooo    ",
"XXXXOOOO++++OOOOOOOO@@@@@@@@OOOOOOOOOOOOOOOOOOOO@@@@++++oooo    ",
"XXXXOOOO++++OOOOOOOO@@@@@@@@OOOOOOOOOOOOOOOOOOOO@@@@++++oooo    ",
"XXXXooooOOOOOOOO@@@@@@@@OOOOooooooooOOOOoooo@@@@@@@@OOOOoooo    ",
"XXXXooooOOOOOOOO@@@@@@@@OOOOooooooooOOOOoooo@@@@@@@@OOOOoooo    ",
"XXXXooooOOOOOOOO@@@@@@@@OOOOooooooooOOOOoooo@@@@@@@@OOOOoooo    ",
"XXXXooooOOOOOOOO@@@@@@@@OOOOooooooooOOOOoooo@@@@@@@@OOOOoooo    ",
"XXXXooooOOOO@@@@@@@@OOOOooooXXXXXXXXoooo++++++++OOOOooooOOOO....",
"XXXXooooOOOO@@@@@@@@OOOOooooXXXXXXXXoooo++++++++OOOOooooOOOO....",
"XXXXooooOOOO@@@@@@@@OOOOooooXXXXXXXXoooo++++++++OOOOooooOOOO....",
"XXXXooooOOOO@@@@@@@@OOOOooooXXXXXXXXoooo++++++++OOOOooooOOOO....",
"XXXXXXXX++++++++OOOOooooXXXXXXXXooooOOOOOOOOOOOOoooooooo++++....",
"XXXXXXXX++++++++OOOOooooXXXXXXXXooooOOOOOOOOOOOOoooooooo++++....",
"XXXXXXXX++++++++OOOOooooXXXXXXXXooooOOOOOOOOOOOOoooooooo++++....",
"XXXXXXXX++++++++OOOOooooXXXXXXXXooooOOOOOOOOOOOOoooooooo++++....",
"XXXXooooXXXXooooooooXXXXXXXXooooOOOOOOOOooooooooOOOO++++@@@@    ",
"XXXXooooXXXXooooooooXXXXXXXXooooOOOOOOOOooooooooOOOO++++@@@@    ",
"XXXXooooXXXXooooooooXXXXXXXXooooOOOOOOOOooooooooOOOO++++@@@@    ",
"XXXXooooXXXXooooooooXXXXXXXXooooOOOOOOOOooooooooOOOO++++@@@@    ",
"........    ........            ........        ........        ",
"........    ........            ........        ........        ",
"........    ........            ........        ........        ",
"........    ........            ........        ........        "
};
