/* XPM */
static char *_609495bca3d4505947fecdb07e90e30ADnJanXsc9WWNUVk[] = {
/* columns rows colors chars-per-pixel */
"64 64 11 1 ",
"  c #B1B0B0",
". c #B9B9B9",
"X c #C1C1C1",
"o c #D1CFCF",
"O c gray84",
"+ c gainsboro",
"@ c gray88",
"# c #E6E6E6",
"$ c #EAEAEA",
"% c #ECECEC",
"& c gray95",
/* pixels */
"ooooXXXXXXXXooooooooooooooooooooooooooooooooXXXXXXXXXXXXXXXXoooo",
"ooooXXXXXXXXooooooooooooooooooooooooooooooooXXXXXXXXXXXXXXXXoooo",
"ooooXXXXXXXXooooooooooooooooooooooooooooooooXXXXXXXXXXXXXXXXoooo",
"ooooXXXXXXXXooooooooooooooooooooooooooooooooXXXXXXXXXXXXXXXXoooo",
"XXXX&&&&&&&&&&&&&&&&&&&&%%%%%%%%%%%%$$$$####################XXXX",
"XXXX&&&&&&&&&&&&&&&&&&&&%%%%%%%%%%%%$$$$####################XXXX",
"XXXX&&&&&&&&&&&&&&&&&&&&%%%%%%%%%%%%$$$$####################XXXX",
"XXXX&&&&&&&&&&&&&&&&&&&&%%%%%%%%%%%%$$$$####################XXXX",
"XXXX########################################################....",
"XXXX########################################################....",
"XXXX########################################################....",
"XXXX########################################################....",
"    ++++++++++++++++++++++++++++@@@@@@@@@@@@OOOOOOOOOOOOOOOO    ",
"    ++++++++++++++++++++++++++++@@@@@@@@@@@@OOOOOOOOOOOOOOOO    ",
"    ++++++++++++++++++++++++++++@@@@@@@@@@@@OOOOOOOOOOOOOOOO    ",
"    ++++++++++++++++++++++++++++@@@@@@@@@@@@OOOOOOOOOOOOOOOO    ",
"XXXX&&&&&&&&&&&&&&&&&&&&&&&&%%%%%%%%%%%%####################....",
"XXXX&&&&&&&&&&&&&&&&&&&&&&&&%%%%%%%%%%%%####################....",
"XXXX&&&&&&&&&&&&&&&&&&&&&&&&%%%%%%%%%%%%####################....",
"XXXX&&&&&&&&&&&&&&&&&&&&&&&&%%%%%%%%%%%%####################....",
"XXXX########################################################....",
"XXXX########################################################....",
"XXXX########################################################....",
"XXXX########################################################....",
"    ++++++++++++++++++++@@@@@@@@@@@@@@@@OOOOOOOOOOOOOOOOOOOO    ",
"    ++++++++++++++++++++@@@@@@@@@@@@@@@@OOOOOOOOOOOOOOOOOOOO    ",
"    ++++++++++++++++++++@@@@@@@@@@@@@@@@OOOOOOOOOOOOOOOOOOOO    ",
"    ++++++++++++++++++++@@@@@@@@@@@@@@@@OOOOOOOOOOOOOOOOOOOO    ",
"XXXX&&&&&&&&%%%%%%%%%%%%%%%%%%%%############################....",
"XXXX&&&&&&&&%%%%%%%%%%%%%%%%%%%%############################....",
"XXXX&&&&&&&&%%%%%%%%%%%%%%%%%%%%############################....",
"XXXX&&&&&&&&%%%%%%%%%%%%%%%%%%%%############################....",
"XXXX########################################################....",
"XXXX########################################################....",
"XXXX########################################################....",
"XXXX########################################################....",
"    ++++++++++++++++++++++++++++++++@@@@@@@@@@@@OOOOOOOOOOOO    ",
"    ++++++++++++++++++++++++++++++++@@@@@@@@@@@@OOOOOOOOOOOO    ",
"    ++++++++++++++++++++++++++++++++@@@@@@@@@@@@OOOOOOOOOOOO    ",
"    ++++++++++++++++++++++++++++++++@@@@@@@@@@@@OOOOOOOOOOOO    ",
"XXXX&&&&&&&&&&&&&&&&&&&&&&&&%%%%%%%%%%%%%%%%################....",
"XXXX&&&&&&&&&&&&&&&&&&&&&&&&%%%%%%%%%%%%%%%%################....",
"XXXX&&&&&&&&&&&&&&&&&&&&&&&&%%%%%%%%%%%%%%%%################....",
"XXXX&&&&&&&&&&&&&&&&&&&&&&&&%%%%%%%%%%%%%%%%################....",
"XXXX########################################################....",
"XXXX########################################################....",
"XXXX########################################################....",
"XXXX########################################################....",
"    ++++++++++++++++++++++++@@@@@@@@@@@@@@@@OOOOOOOOOOOOOOOO    ",
"    ++++++++++++++++++++++++@@@@@@@@@@@@@@@@OOOOOOOOOOOOOOOO    ",
"    ++++++++++++++++++++++++@@@@@@@@@@@@@@@@OOOOOOOOOOOOOOOO    ",
"    ++++++++++++++++++++++++@@@@@@@@@@@@@@@@OOOOOOOOOOOOOOOO    ",
"XXXX&&&&&&&&&&&&&&&&%%%%%%%%%%%%%%%%########################....",
"XXXX&&&&&&&&&&&&&&&&%%%%%%%%%%%%%%%%########################....",
"XXXX&&&&&&&&&&&&&&&&%%%%%%%%%%%%%%%%########################....",
"XXXX&&&&&&&&&&&&&&&&%%%%%%%%%%%%%%%%########################....",
"XXXX########################################################....",
"XXXX########################################################....",
"XXXX########################################################....",
"XXXX########################################################....",
"XXXXXXXXXXXXXXXXXXXXXXXXXXXX........XXXX........................",
"XXXXXXXXXXXXXXXXXXXXXXXXXXXX........XXXX........................",
"XXXXXXXXXXXXXXXXXXXXXXXXXXXX........XXXX........................",
"XXXXXXXXXXXXXXXXXXXXXXXXXXXX........XXXX........................"
};
