/* XPM */
static char *fe70af6930a94133b5f86cf511c754a17sia7OQb5VTornMR[] = {
/* columns rows colors chars-per-pixel */
"64 64 7 1 ",
"  c #67502C",
". c #7E6237",
"X c #967441",
"o c #9F844D",
"O c #AF8F55",
"+ c #B8945F",
"@ c #C29D62",
/* pixels */
"++++OOOO++++@@@@@@@@@@@@@@@@@@@@++++@@@@@@@@@@@@@@@@@@@@++++XXXX",
"++++OOOO++++@@@@@@@@@@@@@@@@@@@@++++@@@@@@@@@@@@@@@@@@@@++++XXXX",
"++++OOOO++++@@@@@@@@@@@@@@@@@@@@++++@@@@@@@@@@@@@@@@@@@@++++XXXX",
"++++OOOO++++@@@@@@@@@@@@@@@@@@@@++++@@@@@@@@@@@@@@@@@@@@++++XXXX",
"++++++++OOOOOOOOXXXXooooOOOO++++++++++++OOOOOOOO++++++++oooooooo",
"++++++++OOOOOOOOXXXXooooOOOO++++++++++++OOOOOOOO++++++++oooooooo",
"++++++++OOOOOOOOXXXXooooOOOO++++++++++++OOOOOOOO++++++++oooooooo",
"++++++++OOOOOOOOXXXXooooOOOO++++++++++++OOOOOOOO++++++++oooooooo",
"OOOO++++++++++++OOOO++++OOOOooooooooooooooooOOOOOOOO++++++++XXXX",
"OOOO++++++++++++OOOO++++OOOOooooooooooooooooOOOOOOOO++++++++XXXX",
"OOOO++++++++++++OOOO++++OOOOooooooooooooooooOOOOOOOO++++++++XXXX",
"OOOO++++++++++++OOOO++++OOOOooooooooooooooooOOOOOOOO++++++++XXXX",
"XXXX........XXXXXXXX....        ........    ....        ....    ",
"XXXX........XXXXXXXX....        ........    ....        ....    ",
"XXXX........XXXXXXXX....        ........    ....        ....    ",
"XXXX........XXXXXXXX....        ........    ....        ....    ",
"++++@@@@oooo@@@@@@@@@@@@@@@@oooo@@@@@@@@@@@@++++OOOOOOOOoooo++++",
"++++@@@@oooo@@@@@@@@@@@@@@@@oooo@@@@@@@@@@@@++++OOOOOOOOoooo++++",
"++++@@@@oooo@@@@@@@@@@@@@@@@oooo@@@@@@@@@@@@++++OOOOOOOOoooo++++",
"++++@@@@oooo@@@@@@@@@@@@@@@@oooo@@@@@@@@@@@@++++OOOOOOOOoooo++++",
"OOOO++++++++OOOOooooOOOOooooXXXXooooOOOOOOOO++++++++++++++++OOOO",
"OOOO++++++++OOOOooooOOOOooooXXXXooooOOOOOOOO++++++++++++++++OOOO",
"OOOO++++++++OOOOooooOOOOooooXXXXooooOOOOOOOO++++++++++++++++OOOO",
"OOOO++++++++OOOOooooOOOOooooXXXXooooOOOOOOOO++++++++++++++++OOOO",
"ooooooooOOOO++++OOOOOOOOOOOOXXXX++++++++++++OOOOOOOOoooooooooooo",
"ooooooooOOOO++++OOOOOOOOOOOOXXXX++++++++++++OOOOOOOOoooooooooooo",
"ooooooooOOOO++++OOOOOOOOOOOOXXXX++++++++++++OOOOOOOOoooooooooooo",
"ooooooooOOOO++++OOOOOOOOOOOOXXXX++++++++++++OOOOOOOOoooooooooooo",
"        ........XXXX....                ............XXXX....    ",
"        ........XXXX....                ............XXXX....    ",
"        ........XXXX....                ............XXXX....    ",
"        ........XXXX....                ............XXXX....    ",
"++++@@@@@@@@++++OOOOOOOO@@@@@@@@@@@@@@@@@@@@@@@@@@@@@@@@++++oooo",
"++++@@@@@@@@++++OOOOOOOO@@@@@@@@@@@@@@@@@@@@@@@@@@@@@@@@++++oooo",
"++++@@@@@@@@++++OOOOOOOO@@@@@@@@@@@@@@@@@@@@@@@@@@@@@@@@++++oooo",
"++++@@@@@@@@++++OOOOOOOO@@@@@@@@@@@@@@@@@@@@@@@@@@@@@@@@++++oooo",
"++++OOOO++++++++++++++++OOOOooooooooooooOOOOooooOOOOooooooooXXXX",
"++++OOOO++++++++++++++++OOOOooooooooooooOOOOooooOOOOooooooooXXXX",
"++++OOOO++++++++++++++++OOOOooooooooooooOOOOooooOOOOooooooooXXXX",
"++++OOOO++++++++++++++++OOOOooooooooooooOOOOooooOOOOooooooooXXXX",
"@@@@++++OOOOOOOOooooooooooooooooOOOOOOOOOOOOOOOOoooooooo++++oooo",
"@@@@++++OOOOOOOOooooooooooooooooOOOOOOOOOOOOOOOOoooooooo++++oooo",
"@@@@++++OOOOOOOOooooooooooooooooOOOOOOOOOOOOOOOOoooooooo++++oooo",
"@@@@++++OOOOOOOOooooooooooooooooOOOOOOOOOOOOOOOOoooooooo++++oooo",
"        ....XXXXXXXX....            ....XXXX........            ",
"        ....XXXXXXXX....            ....XXXX........            ",
"        ....XXXXXXXX....            ....XXXX........            ",
"        ....XXXXXXXX....            ....XXXX........            ",
"@@@@oooo++++@@@@@@@@++++++++oooo@@@@@@@@@@@@oooo@@@@++++@@@@@@@@",
"@@@@oooo++++@@@@@@@@++++++++oooo@@@@@@@@@@@@oooo@@@@++++@@@@@@@@",
"@@@@oooo++++@@@@@@@@++++++++oooo@@@@@@@@@@@@oooo@@@@++++@@@@@@@@",
"@@@@oooo++++@@@@@@@@++++++++oooo@@@@@@@@@@@@oooo@@@@++++@@@@@@@@",
"OOOOOOOO++++++++ooooooooOOOOoooooooo++++++++OOOO++++OOOOOOOOOOOO",
"OOOOOOOO++++++++ooooooooOOOOoooooooo++++++++OOOO++++OOOOOOOOOOOO",
"OOOOOOOO++++++++ooooooooOOOOoooooooo++++++++OOOO++++OOOOOOOOOOOO",
"OOOOOOOO++++++++ooooooooOOOOoooooooo++++++++OOOO++++OOOOOOOOOOOO",
"OOOOooooooooOOOO++++OOOOooooXXXX++++++++OOOOoooooooooooooooooooo",
"OOOOooooooooOOOO++++OOOOooooXXXX++++++++OOOOoooooooooooooooooooo",
"OOOOooooooooOOOO++++OOOOooooXXXX++++++++OOOOoooooooooooooooooooo",
"OOOOooooooooOOOO++++OOOOooooXXXX++++++++OOOOoooooooooooooooooooo",
"    ........        ....XXXXXXXXXXXX....    ....                ",
"    ........        ....XXXXXXXXXXXX....    ....                ",
"    ........        ....XXXXXXXXXXXX....    ....                ",
"    ........        ....XXXXXXXXXXXX....    ....                "
};
