/* XPM */
static char *_6bee85a24cb4f5ed409bb6265ecd8edHZcgKXdtb9OHI4Ce[] = {
/* columns rows colors chars-per-pixel */
"64 64 5 1 ",
"  c #730C00",
". c #941400",
"X c #A41808",
"o c #BD2008",
"O c #E62008",
/* pixels */
"OOOOOOOOOOOOOOOOOOOOOOOOOOOOOOOOOOOOOOOOOOOOOOOOOOOOOOOOOOOOOOOO",
"OOOOOOOOOOOOOOOOOOOOOOOOOOOOOOOOOOOOOOOOOOOOOOOOOOOOOOOOOOOOOOOO",
"OOOOOOOOOOOOOOOOOOOOOOOOOOOOOOOOOOOOOOOOOOOOOOOOOOOOOOOOOOOOOOOO",
"OOOOOOOOOOOOOOOOOOOOOOOOOOOOOOOOOOOOOOOOOOOOOOOOOOOOOOOOOOOOOOOO",
"OOOOooooooooOOOOooooooooXXXXXXXXXXXXooooooooOOOOooooooooooooOOOO",
"OOOOooooooooOOOOooooooooXXXXXXXXXXXXooooooooOOOOooooooooooooOOOO",
"OOOOooooooooOOOOooooooooXXXXXXXXXXXXooooooooOOOOooooooooooooOOOO",
"OOOOooooooooOOOOooooooooXXXXXXXXXXXXooooooooOOOOooooooooooooOOOO",
"OOOOooooooooOOOOXXXXXXXX    XXXXXXXXXXXXXXXXXXXXooooXXXXooooOOOO",
"OOOOooooooooOOOOXXXXXXXX    XXXXXXXXXXXXXXXXXXXXooooXXXXooooOOOO",
"OOOOooooooooOOOOXXXXXXXX    XXXXXXXXXXXXXXXXXXXXooooXXXXooooOOOO",
"OOOOooooooooOOOOXXXXXXXX    XXXXXXXXXXXXXXXXXXXXooooXXXXooooOOOO",
"OOOOooooooooXXXXoooo........        ........XXXX    XXXXooooOOOO",
"OOOOooooooooXXXXoooo........        ........XXXX    XXXXooooOOOO",
"OOOOooooooooXXXXoooo........        ........XXXX    XXXXooooOOOO",
"OOOOooooooooXXXXoooo........        ........XXXX    XXXXooooOOOO",
"OOOOOOOOooooXXXX........    ....XXXX    ........XXXXOOOOOOOOOOOO",
"OOOOOOOOooooXXXX........    ....XXXX    ........XXXXOOOOOOOOOOOO",
"OOOOOOOOooooXXXX........    ....XXXX    ........XXXXOOOOOOOOOOOO",
"OOOOOOOOooooXXXX........    ....XXXX    ........XXXXOOOOOOOOOOOO",
"OOOOooooXXXX....                                OOOOXXXXooooOOOO",
"OOOOooooXXXX....                                OOOOXXXXooooOOOO",
"OOOOooooXXXX....                                OOOOXXXXooooOOOO",
"OOOOooooXXXX....                                OOOOXXXXooooOOOO",
"OOOOoooo    XXXX....                        ............ooooOOOO",
"OOOOoooo    XXXX....                        ............ooooOOOO",
"OOOOoooo    XXXX....                        ............ooooOOOO",
"OOOOoooo    XXXX....                        ............ooooOOOO",
"OOOOXXXX........                                ....XXXXXXXXOOOO",
"OOOOXXXX........                                ....XXXXXXXXOOOO",
"OOOOXXXX........                                ....XXXXXXXXOOOO",
"OOOOXXXX........                                ....XXXXXXXXOOOO",
"OOOOXXXXXXXXoooo....                        ............ooooOOOO",
"OOOOXXXXXXXXoooo....                        ............ooooOOOO",
"OOOOXXXXXXXXoooo....                        ............ooooOOOO",
"OOOOXXXXXXXXoooo....                        ............ooooOOOO",
"OOOOooooXXXXOOOO........    XXXX....    ............XXXXooooOOOO",
"OOOOooooXXXXOOOO........    XXXX....    ............XXXXooooOOOO",
"OOOOooooXXXXOOOO........    XXXX....    ............XXXXooooOOOO",
"OOOOooooXXXXOOOO........    XXXX....    ............XXXXooooOOOO",
"OOOOooooXXXX........            OOOO        ....XXXXXXXXOOOOOOOO",
"OOOOooooXXXX........            OOOO        ....XXXXXXXXOOOOOOOO",
"OOOOooooXXXX........            OOOO        ....XXXXXXXXOOOOOOOO",
"OOOOooooXXXX........            OOOO        ....XXXXXXXXOOOOOOOO",
"OOOOooooooooXXXX........    ....        ............    ooooOOOO",
"OOOOooooooooXXXX........    ....        ............    ooooOOOO",
"OOOOooooooooXXXX........    ....        ............    ooooOOOO",
"OOOOooooooooXXXX........    ....        ............    ooooOOOO",
"OOOOooooXXXXXXXXXXXX........................XXXXXXXXXXXXXXXXOOOO",
"OOOOooooXXXXXXXXXXXX........................XXXXXXXXXXXXXXXXOOOO",
"OOOOooooXXXXXXXXXXXX........................XXXXXXXXXXXXXXXXOOOO",
"OOOOooooXXXXXXXXXXXX........................XXXXXXXXXXXXXXXXOOOO",
"OOOOOOOOoooo....XXXXOOOOXXXX........    XXXXXXXXooooXXXXooooOOOO",
"OOOOOOOOoooo....XXXXOOOOXXXX........    XXXXXXXXooooXXXXooooOOOO",
"OOOOOOOOoooo....XXXXOOOOXXXX........    XXXXXXXXooooXXXXooooOOOO",
"OOOOOOOOoooo....XXXXOOOOXXXX........    XXXXXXXXooooXXXXooooOOOO",
"OOOOooooooooooooOOOOOOOOooooooooXXXXXXXXooooooooooooooooooooOOOO",
"OOOOooooooooooooOOOOOOOOooooooooXXXXXXXXooooooooooooooooooooOOOO",
"OOOOooooooooooooOOOOOOOOooooooooXXXXXXXXooooooooooooooooooooOOOO",
"OOOOooooooooooooOOOOOOOOooooooooXXXXXXXXooooooooooooooooooooOOOO",
"OOOOOOOOOOOOOOOOOOOOOOOOOOOOOOOOOOOOOOOOOOOOOOOOOOOOOOOOOOOOOOOO",
"OOOOOOOOOOOOOOOOOOOOOOOOOOOOOOOOOOOOOOOOOOOOOOOOOOOOOOOOOOOOOOOO",
"OOOOOOOOOOOOOOOOOOOOOOOOOOOOOOOOOOOOOOOOOOOOOOOOOOOOOOOOOOOOOOOO",
"OOOOOOOOOOOOOOOOOOOOOOOOOOOOOOOOOOOOOOOOOOOOOOOOOOOOOOOOOOOOOOOO"
};
